<svg width="92" height="74" viewBox="0 0 92 74" fill="none" xmlns="http://www.w3.org/2000/svg">
<path d="M75.7834 20.7404C78.5956 20.7404 80.9752 23.1262 80.9752 25.9458V50.2379C80.9752 53.1659 78.5956 55.4433 75.7834 55.4433H51.5549C48.6345 55.4433 46.3631 53.1659 46.3631 50.2379V45.2493L61.0732 30.5006C63.6692 27.8979 64.21 23.9938 62.912 20.7404H75.7834ZM63.6692 40.6946C65.0753 40.6946 66.2651 39.6101 66.2651 38.0919C66.2651 36.6821 65.0753 35.4891 63.6692 35.4891C62.1549 35.4891 61.0732 36.6821 61.0732 38.0919C61.0732 39.6101 62.1549 40.6946 63.6692 40.6946ZM58.5855 20.5235C60.6406 22.584 60.6406 25.9458 58.5855 28.0063L39.657 46.9845C37.6019 49.045 34.2488 49.045 32.1937 46.9845L13.2652 28.0063C11.2101 25.9458 11.2101 22.584 13.2652 20.5235L32.1937 1.54536C34.2488 -0.515121 37.6019 -0.515121 39.657 1.54536L58.5855 20.5235ZM22.1346 26.8134C23.5407 26.8134 24.7305 25.7289 24.7305 24.2107C24.7305 22.8009 23.5407 21.608 22.1346 21.608C20.6203 21.608 19.5387 22.8009 19.5387 24.2107C19.5387 25.7289 20.6203 26.8134 22.1346 26.8134ZM35.9794 40.6946C37.3855 40.6946 38.5753 39.6101 38.5753 38.0919C38.5753 36.6821 37.3855 35.4891 35.9794 35.4891C34.4651 35.4891 33.3835 36.6821 33.3835 38.0919C33.3835 39.6101 34.4651 40.6946 35.9794 40.6946ZM35.9794 26.8134C37.3855 26.8134 38.5753 25.7289 38.5753 24.2107C38.5753 22.8009 37.3855 21.608 35.9794 21.608C34.4651 21.608 33.3835 22.8009 33.3835 24.2107C33.3835 25.7289 34.4651 26.8134 35.9794 26.8134ZM35.9794 12.9323C37.3855 12.9323 38.5753 11.8478 38.5753 10.3295C38.5753 8.91973 37.3855 7.72682 35.9794 7.72682C34.4651 7.72682 33.3835 8.91973 33.3835 10.3295C33.3835 11.8478 34.4651 12.9323 35.9794 12.9323ZM49.8243 26.8134C51.2304 26.8134 52.4202 25.7289 52.4202 24.2107C52.4202 22.8009 51.2304 21.608 49.8243 21.608C48.31 21.608 47.2284 22.8009 47.2284 24.2107C47.2284 25.7289 48.31 26.8134 49.8243 26.8134Z" fill="white"/>
<path d="M84.5515 73.7412V71.2148L86.1248 70.8205V57.4495L84.2565 57.0552V54.5165H90.439V70.8205L92 71.2148V73.7412H84.5515Z" fill="white"/>
<path d="M74.9889 74C73.7024 74 72.6535 73.6344 71.8423 72.9032C71.0311 72.172 70.6255 71.1985 70.6255 69.9825C70.6255 68.7338 71.1253 67.7109 72.125 66.914C73.1329 66.1171 74.6529 65.7186 76.6851 65.7186H78.074V64.9299C78.074 64.3959 77.9224 63.944 77.6192 63.5743C77.316 63.1964 76.8367 63.0075 76.1811 63.0075C75.9025 63.0075 75.6403 63.0444 75.3945 63.1184C75.1569 63.1841 74.9397 63.2827 74.7431 63.4141L74.4481 65.1148H71.4121L71.3507 61.4054C72.1045 61.0686 72.8912 60.7769 73.7106 60.5304C74.5382 60.284 75.46 60.1607 76.4761 60.1607C78.287 60.1607 79.7251 60.5797 80.7904 61.4177C81.8556 62.2475 82.3882 63.4347 82.3882 64.9792V69.8963C82.3882 70.0852 82.3882 70.2701 82.3882 70.4508C82.3964 70.6316 82.4169 70.8041 82.4497 70.9684L83.8877 71.2149V73.7412H78.8483C78.7418 73.5933 78.6271 73.3961 78.5042 73.1497C78.3813 72.9032 78.2952 72.6567 78.2461 72.4103C77.8445 72.9114 77.3939 73.3017 76.894 73.581C76.3942 73.8603 75.7591 74 74.9889 74ZM76.3163 70.9438C76.6277 70.9438 76.9391 70.8822 77.2505 70.7589C77.57 70.6275 77.8445 70.4344 78.074 70.1797V68.2573H76.7342C76.1525 68.2573 75.7018 68.3846 75.3822 68.6393C75.0708 68.894 74.9151 69.2308 74.9151 69.6498C74.9151 70.0524 75.0462 70.3687 75.3085 70.5987C75.5707 70.8288 75.9066 70.9438 76.3163 70.9438Z" fill="white"/>
<path d="M60.1534 73.7412V71.2149L61.7021 70.8205V63.3402L59.8584 62.9458V60.4072H65.7705L65.8688 62.0339L65.8934 62.3666C66.1884 61.6108 66.553 61.0562 66.9873 60.703C67.4298 60.3415 67.9788 60.1607 68.6343 60.1607C68.8146 60.1607 69.0277 60.1772 69.2735 60.21C69.5193 60.2347 69.7692 60.284 70.0233 60.3579L69.5931 64.3261L67.7494 64.2398C67.3233 64.2234 66.9873 64.2727 66.7415 64.3877C66.5039 64.4945 66.2621 64.6752 66.0163 64.9299V70.8205L67.565 71.2149V73.7412H60.1534Z" fill="white"/>
<path d="M52.8647 74C51.5618 74 50.4228 73.7207 49.4477 73.162C48.4808 72.5951 47.727 71.8229 47.1861 70.8452C46.6535 69.8675 46.3872 68.7625 46.3872 67.5302V67.0742C46.3872 65.7186 46.6248 64.5232 47.1001 63.4881C47.5754 62.4447 48.2719 61.6313 49.1896 61.048C50.1074 60.4565 51.2341 60.1607 52.5697 60.1607C53.7742 60.1607 54.7903 60.3949 55.6179 60.8632C56.4537 61.3233 57.0888 62.0051 57.5231 62.9089C57.9574 63.8044 58.1745 64.9094 58.1745 66.2239V68.4544H50.8612L50.8489 68.5407C50.9145 68.9597 51.0538 69.3335 51.2668 69.6621C51.4881 69.9825 51.7913 70.2372 52.1764 70.4262C52.5615 70.6152 53.0368 70.7096 53.6022 70.7096C54.1594 70.7096 54.7043 70.648 55.2369 70.5248C55.7777 70.3933 56.3472 70.1879 56.9454 69.9086L57.9287 72.5212C57.3305 72.9484 56.6012 73.3017 55.7408 73.581C54.8805 73.8603 53.9217 74 52.8647 74ZM50.8612 65.7802H54.2413V65.4598C54.2413 64.9833 54.1922 64.5849 54.0938 64.2645C54.0037 63.944 53.8439 63.7017 53.6145 63.5374C53.385 63.3731 53.0695 63.2909 52.668 63.2909C52.2337 63.2909 51.8855 63.3977 51.6233 63.6113C51.3693 63.8167 51.1808 64.1042 51.0579 64.474C50.9432 64.8354 50.8612 65.2503 50.8121 65.7186L50.8612 65.7802Z" fill="white"/>
<path d="M30.3717 73.7412V71.2149L31.9203 70.8205V63.3402L30.0767 62.9458V60.4072H36.001L36.1485 62.2681C36.591 61.6026 37.1318 61.085 37.771 60.7153C38.4183 60.3456 39.1517 60.1607 39.9711 60.1607C41.2166 60.1607 42.1999 60.5838 42.921 61.4301C43.6421 62.2763 44.0026 63.6195 44.0026 65.4598V70.8205L45.5513 71.2149V73.7412H38.4224V71.2149L39.6761 70.8205V65.4475C39.6761 64.7327 39.5327 64.2275 39.2459 63.9317C38.9591 63.6277 38.5494 63.4758 38.0168 63.4758C37.6153 63.4758 37.2711 63.5497 36.9843 63.6976C36.6975 63.8372 36.4476 64.0508 36.2346 64.3384V70.8205L37.3408 71.2149V73.7412H30.3717Z" fill="white"/>
<path d="M23.759 74C22.4561 74 21.3171 73.7207 20.342 73.162C19.3751 72.5951 18.6212 71.8229 18.0804 70.8452C17.5478 69.8675 17.2815 68.7625 17.2815 67.5302V67.0742C17.2815 65.7186 17.5191 64.5232 17.9944 63.4881C18.4696 62.4447 19.1662 61.6313 20.0839 61.048C21.0016 60.4565 22.1283 60.1607 23.464 60.1607C24.6685 60.1607 25.6846 60.3949 26.5122 60.8632C27.348 61.3233 27.9831 62.0051 28.4174 62.9089C28.8517 63.8044 29.0688 64.9094 29.0688 66.2239V68.4544H21.7555L21.7432 68.5407C21.8088 68.9597 21.9481 69.3335 22.1611 69.6621C22.3824 69.9825 22.6855 70.2372 23.0707 70.4262C23.4558 70.6152 23.9311 70.7096 24.4965 70.7096C25.0537 70.7096 25.5986 70.648 26.1312 70.5248C26.672 70.3933 27.2415 70.1879 27.8397 69.9086L28.823 72.5212C28.2248 72.9484 27.4955 73.3017 26.6351 73.581C25.7747 73.8603 24.816 74 23.759 74ZM21.7555 65.7802H25.1356V65.4598C25.1356 64.9833 25.0864 64.5849 24.9881 64.2645C24.898 63.944 24.7382 63.7017 24.5087 63.5374C24.2793 63.3731 23.9638 63.2909 23.5623 63.2909C23.128 63.2909 22.7798 63.3977 22.5176 63.6113C22.2635 63.8167 22.0751 64.1042 21.9522 64.474C21.8375 64.8354 21.7555 65.2503 21.7063 65.7186L21.7555 65.7802Z" fill="white"/>
<path d="M8.64075 74C6.78887 74 5.21968 73.6385 3.9332 72.9155C2.65491 72.1926 1.6798 71.1902 1.00788 69.9086C0.335961 68.6187 0 67.1276 0 65.4352V64.6218C0 62.839 0.331864 61.2657 0.995591 59.9019C1.65932 58.5381 2.62213 57.4701 3.88403 56.6978C5.14594 55.9256 6.67005 55.5394 8.45638 55.5394C9.67731 55.5394 10.9023 55.7284 12.1315 56.1063C13.3606 56.476 14.4422 57.0634 15.3764 57.8686V62.0709H12.3035L11.6521 59.791C11.3735 59.5035 10.9761 59.2652 10.4599 59.0763C9.95181 58.8873 9.37822 58.7928 8.73908 58.7928C7.75578 58.7928 6.93226 59.0393 6.26854 59.5322C5.60481 60.017 5.10497 60.6947 4.769 61.5656C4.44124 62.4365 4.27735 63.447 4.27735 64.5972V65.4352C4.27735 66.5196 4.44943 67.4603 4.79359 68.2573C5.14594 69.0542 5.65807 69.6703 6.32999 70.1058C7.00191 70.5412 7.82953 70.7589 8.81283 70.7589C9.32906 70.7589 9.84119 70.7055 10.3492 70.5987C10.8573 70.4919 11.2547 70.3728 11.5415 70.2413V67.9245L9.52572 67.6781V64.6958H15.868V72.1391C14.9011 72.7635 13.8072 73.2318 12.5862 73.544C11.3735 73.848 10.0583 74 8.64075 74Z" fill="white"/>
</svg>
